<svg width="426" height="93" viewBox="0 0 426 93" fill="none" xmlns="http://www.w3.org/2000/svg">
<g id="variety=blackwhite">
<rect width="426" height="93" fill="black"/>
<g id="hh-logo-original-complete">
<g id="hh-logo" clip-path="url(#clip0_49_1968)">
<path id="Vector" d="M8.19107 70.1443C8.23551 70.1673 8.23551 70.19 8.19107 70.213V70.1443Z" fill="white"/>
<path id="Vector_2" d="M80.0345 -0.0278358H-0.0348511V93H80.0345V-0.0278358Z" fill="black"/>
<g id="Group">
<path id="Vector_3" d="M49.9914 9.10036C50.8822 9.10036 51.7406 9.36327 52.4738 9.86022C53.1806 10.3393 53.7323 11.0039 54.0718 11.7837C57.5355 20.5205 63.6657 24.8342 68.2858 25.9725C69.1704 26.2416 69.9668 26.7976 70.5339 27.543C71.1301 28.3269 71.4452 29.2652 71.4452 30.2566V64.1115C71.4452 64.9116 71.2336 65.6951 70.8334 66.3777C70.4481 67.0344 69.9002 67.585 69.2473 67.9716L42.3739 82.7607C41.7221 83.115 41.0118 83.2948 40.2625 83.2948C39.5132 83.2948 38.8046 83.1157 38.1538 82.7621L11.2777 67.9716C10.6245 67.585 10.0766 67.0344 9.69167 66.3777C9.2914 65.6951 9.07981 64.9116 9.07981 64.1115V30.2566C9.07981 29.2652 9.39497 28.3269 9.99111 27.543C10.5582 26.7976 11.3546 26.2416 12.2393 25.9725C16.8696 24.8322 23.0118 20.5445 26.4796 11.8879C26.8094 11.0741 27.3669 10.3798 28.0919 9.8798C28.8316 9.3698 29.6999 9.10002 30.603 9.10002H49.9911M49.9914 5.66367H30.6033C27.3044 5.66367 24.4803 7.70472 23.3109 10.5994C20.362 17.966 15.2494 21.7251 11.357 22.6516C8.06836 23.5998 5.66159 26.6457 5.66159 30.257V64.1118C5.66159 67.0403 7.24423 69.5968 9.5963 70.9646L36.5172 85.7799C37.6308 86.3871 38.9065 86.7318 40.2625 86.7318C41.6185 86.7318 42.8942 86.3868 44.0079 85.7799L70.9287 70.9646C73.2808 69.5968 74.8634 67.0403 74.8634 64.1118V30.257C74.8634 26.6457 72.4567 23.5998 69.168 22.6516C65.2548 21.7202 60.2017 17.966 57.2466 10.5108C57.2422 10.4963 57.2357 10.4823 57.2357 10.4823C56.0379 7.65008 53.2456 5.66367 49.9914 5.66367Z" fill="white"/>
<path id="Vector_4" d="M48.027 16.0456C50.712 23.3685 55.4001 27.4458 59.0401 29.6229C60.7797 30.6635 62.6218 31.4884 64.5202 32.0777V62.6657L40.2625 76.0155L16.0048 62.6657V32.0777C17.9032 31.4887 19.7453 30.6635 21.4849 29.6229C25.1249 27.4458 29.813 23.3685 32.498 16.0456H48.0273M50.5168 12.6089H30.0082C25.8472 27.7647 12.5865 29.3634 12.5865 29.3634V64.7026L40.2625 79.9333L67.9385 64.7026V29.3634C67.9385 29.3634 54.6778 27.7647 50.5168 12.6089Z" fill="white"/>
<path id="Vector_5" d="M45.3071 73.25C45.2979 73.2424 45.2904 73.2328 45.2859 73.2208C44.8676 72.0908 44.2858 70.9247 43.2176 70.1254C42.4998 69.5882 40.5415 68.6716 39.7389 68.305C39.6674 68.2723 39.6958 68.1644 39.7737 68.1716C40.659 68.252 42.9158 68.5874 44.914 69.9714C45.7166 70.5271 46.6563 71.5124 47.5201 72.0338L51.8455 69.6566C50.9995 69.8353 49.6568 69.7848 49.1697 68.7442C49.1373 68.6744 49.222 68.6101 49.2791 68.6617C49.7607 69.0988 50.1248 69.2305 50.5589 69.2243C52.0417 69.2023 52.3955 68.0156 52.4659 67.6826C52.4751 67.6386 52.441 67.5973 52.3962 67.5984C52.1938 67.6032 51.6855 67.6128 51.49 67.5963C50.6266 67.5228 48.2584 66.7815 47.7132 66.4993C46.7541 66.0027 46.0178 65.2435 45.1608 64.6119C43.5994 63.4603 41.1178 61.824 39.3335 61.123C39.0429 61.0089 38.0342 60.6748 37.5293 60.5085C37.4582 60.4851 37.4688 60.3813 37.543 60.3727C38.1477 60.3019 39.518 60.1827 40.4608 60.415C41.7532 60.7339 42.3077 60.9817 43.3307 61.4852C43.3823 61.5106 43.4411 61.4656 43.4299 61.4089L43.061 59.5273C43.0474 59.4575 43.1335 59.4139 43.181 59.4668C43.3123 59.6132 43.4893 59.8115 43.5936 59.9332C45.3413 61.9732 46.2407 63.197 48.8122 64.3091C50.2448 64.9287 51.4285 65.2319 53.1133 65.3704C53.1872 65.3765 53.2183 65.2779 53.1547 65.2401C49.9296 63.3286 49.0262 62.5076 46.2078 58.8162C44.9605 57.1828 43.9361 51.8655 43.8 49.8276C43.7758 49.4633 43.745 47.537 43.8349 47.3209C43.8899 47.1885 44.1176 47.0019 44.2769 47.0762C44.3733 47.1212 44.8101 47.7085 44.8928 47.835C45.4415 48.6725 46.5955 49.1746 47.6654 49.0416C47.8182 49.0227 53.4404 48.601 54.9947 49.0196C56.5674 49.4434 57.9115 50.7902 59.6131 49.9874C60.5049 49.5667 61.5225 48.8842 62.0403 48.0288C62.2742 47.6429 63.1499 45.5324 63.1297 45.1712C63.1102 44.8193 62.5558 43.6642 62.3258 43.3673C61.5324 42.3407 58.1422 40.864 56.8351 39.9522C55.1475 38.7752 54.32 37.6558 52.9951 36.1836C51.8472 34.9079 50.4799 34.2662 48.9561 33.5576C48.9352 33.548 48.9205 33.5287 48.9164 33.5057C48.7489 32.5183 48.5114 31.3914 48.2837 30.6622C47.9645 29.6394 47.5474 28.8555 47.3317 28.4857C47.2982 28.428 47.2107 28.4462 47.2029 28.5125C47.1776 28.7287 47.0733 29.093 46.7383 29.6549C46.4977 30.0587 45.6664 30.8364 45.3615 30.8364C45.0908 30.8364 44.871 30.0882 44.6003 29.5861C44.4673 29.3394 44.3049 29.062 44.1709 28.838C44.0605 28.6534 43.7891 28.6703 43.7019 28.8672C43.3936 29.5624 42.8218 30.8495 42.5876 31.3639C42.334 31.92 42.1648 31.9678 40.3429 32.1338C38.0872 32.3393 34.6433 33.9583 33.0327 34.5367C32.12 34.8646 31.2528 35.0656 30.2618 35.0515C29.0703 35.0347 27.3789 33.6799 26.9475 33.318C26.9041 33.2816 26.8378 33.3098 26.8337 33.3665C26.7465 34.5075 26.7459 35.6457 26.9462 36.8733C27.1496 38.1208 27.7037 39.5807 27.8359 39.9186C27.851 39.9571 27.8298 40.0004 27.7898 40.0114C27.2941 40.1488 24.4522 40.9585 23.0634 41.8448C20.5603 43.4419 19.4955 45.7393 19.1653 47.3865C19.1509 47.4573 19.2405 47.5002 19.287 47.4449C20.082 46.4971 20.9291 45.6362 22.7681 44.7585C23.4716 44.4227 24.4957 44.1976 25.1003 44.0852C25.18 44.0704 25.2159 44.1811 25.1434 44.2168C24.2263 44.6691 22.1343 45.7939 20.78 47.2528C18.3726 49.8461 18.1094 53.3935 18.081 54.0282C18.079 54.0767 18.1251 54.1124 18.1713 54.098C18.6037 53.9609 20.4194 53.3849 21.1725 53.1313C22.1678 52.7958 23.2945 52.2047 24.0991 53.1203C24.5233 53.6028 24.6067 54.064 24.3275 54.7018C23.718 56.094 21.8964 56.9659 20.4509 57.1488C20.161 57.1855 18.8805 57.2251 18.4816 57.2364C18.4283 57.2381 18.3965 57.2965 18.4242 57.3422C18.5442 57.5412 18.804 57.9729 18.8853 58.1055C19.9918 59.9071 22.0944 62.6994 24.469 62.2196C25.2637 62.0591 25.6534 61.0635 25.9904 60.3813C27.2306 57.8736 27.7088 54.9778 28.4119 52.2996C29.3711 48.6471 30.954 42.8415 33.5081 40.1024C33.7847 39.8058 34.0492 39.5745 34.374 39.3759C34.4399 39.3357 34.5124 39.4171 34.4652 39.4787C33.9375 40.1688 33.6086 40.665 33.2576 41.363C30.6854 46.4802 30.1579 52.3199 29.1061 57.878C28.7927 59.5345 28.5753 61.0415 27.8807 62.5571C27.4999 63.3881 27.0337 64.4363 26.1757 64.8294C23.5095 66.0501 20.053 62.8671 17.9993 61.3381C17.9504 61.3017 17.8817 61.3419 17.8889 61.4027C17.9371 61.8048 18.0386 62.2691 18.0885 62.4114C18.2827 62.9619 18.7578 63.93 19.2049 64.473C19.2056 64.4737 19.206 64.4748 19.2066 64.4754L40.256 76.0265L45.3058 73.251L45.3071 73.25ZM45.9422 37.5837C46.9718 36.4441 48.8686 38.227 47.5129 39.1288C46.9892 39.4773 46.5233 39.4498 46.0294 39.0625C45.6972 38.8016 45.6739 37.8806 45.9419 37.584L45.9422 37.5837Z" fill="white"/>
</g>
</g>
<g id="HorseHouse.">
<path d="M107.744 51V11.8H118.832V51H107.744ZM84 51V11.8H95.088V51H84ZM88.2 36.328L88.256 26.584H113.848V36.328H88.2Z" fill="white"/>
<path d="M140.117 51.56C136.943 51.56 134.106 50.888 131.605 49.544C129.103 48.2 127.143 46.3707 125.725 44.056C124.306 41.7413 123.597 39.072 123.597 36.048C123.597 33.024 124.306 30.3547 125.725 28.04C127.143 25.7253 129.103 23.896 131.605 22.552C134.106 21.208 136.943 20.536 140.117 20.536C143.29 20.536 146.109 21.208 148.573 22.552C151.074 23.896 153.034 25.7253 154.453 28.04C155.871 30.3547 156.581 33.024 156.581 36.048C156.581 39.072 155.871 41.7413 154.453 44.056C153.034 46.3707 151.074 48.2 148.573 49.544C146.109 50.888 143.29 51.56 140.117 51.56ZM140.117 42.768C141.237 42.768 142.245 42.488 143.141 41.928C144.074 41.3307 144.783 40.528 145.269 39.52C145.791 38.4747 146.053 37.3173 146.053 36.048C146.053 34.704 145.791 33.528 145.269 32.52C144.783 31.512 144.074 30.728 143.141 30.168C142.245 29.5707 141.237 29.272 140.117 29.272C138.959 29.272 137.933 29.5707 137.037 30.168C136.141 30.728 135.431 31.5307 134.909 32.576C134.386 33.584 134.125 34.7413 134.125 36.048C134.125 37.3173 134.386 38.4747 134.909 39.52C135.431 40.528 136.141 41.3307 137.037 41.928C137.933 42.488 138.959 42.768 140.117 42.768Z" fill="white"/>
<path d="M160.576 51V21.152H170.32L170.88 30.952L168.696 29.272C169.181 27.6293 169.928 26.1547 170.936 24.848C171.981 23.504 173.232 22.4587 174.688 21.712C176.144 20.928 177.675 20.536 179.28 20.536C179.952 20.536 180.587 20.592 181.184 20.704C181.781 20.7787 182.341 20.8907 182.864 21.04L180.008 32.576C179.597 32.3147 179.019 32.0907 178.272 31.904C177.525 31.68 176.723 31.568 175.864 31.568C175.117 31.568 174.445 31.6987 173.848 31.96C173.251 32.184 172.747 32.52 172.336 32.968C171.925 33.416 171.608 33.9573 171.384 34.592C171.16 35.1893 171.048 35.8987 171.048 36.72V51H160.576Z" fill="white"/>
<path d="M195.83 51.56C192.732 51.56 190.006 51.0747 187.654 50.104C185.302 49.1333 183.473 47.8827 182.166 46.352L188.27 41.088C189.465 42.1707 190.809 42.9733 192.302 43.496C193.833 44.0187 195.177 44.28 196.334 44.28C196.745 44.28 197.118 44.2427 197.454 44.168C197.79 44.0933 198.052 43.9813 198.238 43.832C198.462 43.6453 198.63 43.4587 198.742 43.272C198.892 43.048 198.966 42.8053 198.966 42.544C198.966 41.9093 198.649 41.424 198.014 41.088C197.678 40.9387 197.118 40.752 196.334 40.528C195.588 40.2667 194.58 39.9867 193.31 39.688C191.742 39.2773 190.342 38.792 189.11 38.232C187.878 37.6347 186.833 36.944 185.974 36.16C185.153 35.376 184.5 34.48 184.014 33.472C183.566 32.4267 183.342 31.288 183.342 30.056C183.342 28.5627 183.678 27.2373 184.35 26.08C185.022 24.9227 185.956 23.9333 187.15 23.112C188.345 22.2533 189.689 21.6187 191.182 21.208C192.676 20.76 194.206 20.536 195.774 20.536C197.529 20.536 199.172 20.7227 200.702 21.096C202.27 21.432 203.726 21.936 205.07 22.608C206.452 23.2427 207.684 24.0267 208.766 24.96L203.39 30.896C202.756 30.336 202.009 29.8133 201.15 29.328C200.329 28.8427 199.47 28.4507 198.574 28.152C197.678 27.816 196.838 27.648 196.054 27.648C195.569 27.648 195.158 27.6853 194.822 27.76C194.486 27.8347 194.206 27.9467 193.982 28.096C193.758 28.2453 193.59 28.432 193.478 28.656C193.366 28.88 193.31 29.1227 193.31 29.384C193.31 29.72 193.404 30.0373 193.59 30.336C193.777 30.6347 194.076 30.8773 194.486 31.064C194.822 31.2507 195.382 31.4933 196.166 31.792C196.988 32.0533 198.164 32.3893 199.694 32.8C201.412 33.2853 202.905 33.8453 204.174 34.48C205.444 35.1147 206.47 35.8427 207.254 36.664C207.814 37.2987 208.244 38.008 208.542 38.792C208.841 39.5387 208.99 40.3787 208.99 41.312C208.99 43.2907 208.412 45.064 207.254 46.632C206.134 48.1627 204.585 49.376 202.606 50.272C200.628 51.1307 198.369 51.56 195.83 51.56Z" fill="white"/>
<path d="M226.46 51.56C223.062 51.56 220.132 50.9067 217.668 49.6C215.204 48.256 213.3 46.4267 211.956 44.112C210.612 41.76 209.94 39.0907 209.94 36.104C209.94 33.864 210.313 31.792 211.06 29.888C211.806 27.984 212.852 26.3413 214.196 24.96C215.54 23.5413 217.126 22.4587 218.956 21.712C220.822 20.928 222.857 20.536 225.06 20.536C227.225 20.536 229.185 20.9093 230.94 21.656C232.732 22.4027 234.262 23.4667 235.532 24.848C236.838 26.2293 237.828 27.8533 238.5 29.72C239.209 31.5867 239.526 33.64 239.452 35.88L239.396 38.232H215.876L214.588 33.024H231.052L230.044 34.144V33.08C230.044 32.2587 229.82 31.5493 229.372 30.952C228.961 30.3173 228.401 29.832 227.692 29.496C226.982 29.16 226.18 28.992 225.284 28.992C224.014 28.992 222.95 29.2533 222.092 29.776C221.27 30.2613 220.636 30.9707 220.188 31.904C219.74 32.8373 219.516 33.9573 219.516 35.264C219.516 36.7573 219.814 38.0453 220.412 39.128C221.046 40.2107 221.961 41.0507 223.156 41.648C224.388 42.2453 225.881 42.544 227.636 42.544C228.793 42.544 229.801 42.3947 230.66 42.096C231.556 41.7973 232.508 41.2747 233.516 40.528L238.332 47.304C237.025 48.3493 235.7 49.1893 234.356 49.824C233.049 50.4213 231.742 50.8507 230.436 51.112C229.129 51.4107 227.804 51.56 226.46 51.56Z" fill="white"/>
<path d="M267.672 51V11.8H278.76V51H267.672ZM243.928 51V11.8H255.016V51H243.928ZM248.128 36.328L248.184 26.584H273.776V36.328H248.128Z" fill="white"/>
<path d="M300.045 51.56C296.872 51.56 294.034 50.888 291.533 49.544C289.032 48.2 287.072 46.3707 285.653 44.056C284.234 41.7413 283.525 39.072 283.525 36.048C283.525 33.024 284.234 30.3547 285.653 28.04C287.072 25.7253 289.032 23.896 291.533 22.552C294.034 21.208 296.872 20.536 300.045 20.536C303.218 20.536 306.037 21.208 308.501 22.552C311.002 23.896 312.962 25.7253 314.381 28.04C315.8 30.3547 316.509 33.024 316.509 36.048C316.509 39.072 315.8 41.7413 314.381 44.056C312.962 46.3707 311.002 48.2 308.501 49.544C306.037 50.888 303.218 51.56 300.045 51.56ZM300.045 42.768C301.165 42.768 302.173 42.488 303.069 41.928C304.002 41.3307 304.712 40.528 305.197 39.52C305.72 38.4747 305.981 37.3173 305.981 36.048C305.981 34.704 305.72 33.528 305.197 32.52C304.712 31.512 304.002 30.728 303.069 30.168C302.173 29.5707 301.165 29.272 300.045 29.272C298.888 29.272 297.861 29.5707 296.965 30.168C296.069 30.728 295.36 31.5307 294.837 32.576C294.314 33.584 294.053 34.7413 294.053 36.048C294.053 37.3173 294.314 38.4747 294.837 39.52C295.36 40.528 296.069 41.3307 296.965 41.928C297.861 42.488 298.888 42.768 300.045 42.768Z" fill="white"/>
<path d="M330.584 51.616C328.344 51.616 326.44 51.1493 324.872 50.216C323.304 49.2453 322.11 47.864 321.288 46.072C320.467 44.28 320.056 42.1147 320.056 39.576V21.152H330.472V38.512C330.472 39.4827 330.64 40.304 330.976 40.976C331.312 41.648 331.779 42.1707 332.376 42.544C332.974 42.88 333.702 43.048 334.56 43.048C335.232 43.048 335.83 42.9547 336.352 42.768C336.912 42.5813 337.379 42.3013 337.752 41.928C338.126 41.5173 338.424 41.0693 338.648 40.584C338.872 40.0613 338.984 39.5013 338.984 38.904V21.152H349.4V51H339.768L339.208 44.952L341.168 44.28C340.758 45.6613 340.03 46.912 338.984 48.032C337.939 49.152 336.688 50.0293 335.232 50.664C333.776 51.2987 332.227 51.616 330.584 51.616Z" fill="white"/>
<path d="M365.876 51.56C362.777 51.56 360.052 51.0747 357.7 50.104C355.348 49.1333 353.518 47.8827 352.212 46.352L358.316 41.088C359.51 42.1707 360.854 42.9733 362.348 43.496C363.878 44.0187 365.222 44.28 366.38 44.28C366.79 44.28 367.164 44.2427 367.5 44.168C367.836 44.0933 368.097 43.9813 368.284 43.832C368.508 43.6453 368.676 43.4587 368.788 43.272C368.937 43.048 369.012 42.8053 369.012 42.544C369.012 41.9093 368.694 41.424 368.06 41.088C367.724 40.9387 367.164 40.752 366.38 40.528C365.633 40.2667 364.625 39.9867 363.356 39.688C361.788 39.2773 360.388 38.792 359.156 38.232C357.924 37.6347 356.878 36.944 356.02 36.16C355.198 35.376 354.545 34.48 354.06 33.472C353.612 32.4267 353.388 31.288 353.388 30.056C353.388 28.5627 353.724 27.2373 354.396 26.08C355.068 24.9227 356.001 23.9333 357.196 23.112C358.39 22.2533 359.734 21.6187 361.228 21.208C362.721 20.76 364.252 20.536 365.82 20.536C367.574 20.536 369.217 20.7227 370.748 21.096C372.316 21.432 373.772 21.936 375.116 22.608C376.497 23.2427 377.729 24.0267 378.812 24.96L373.436 30.896C372.801 30.336 372.054 29.8133 371.196 29.328C370.374 28.8427 369.516 28.4507 368.62 28.152C367.724 27.816 366.884 27.648 366.1 27.648C365.614 27.648 365.204 27.6853 364.868 27.76C364.532 27.8347 364.252 27.9467 364.028 28.096C363.804 28.2453 363.636 28.432 363.524 28.656C363.412 28.88 363.356 29.1227 363.356 29.384C363.356 29.72 363.449 30.0373 363.636 30.336C363.822 30.6347 364.121 30.8773 364.532 31.064C364.868 31.2507 365.428 31.4933 366.212 31.792C367.033 32.0533 368.209 32.3893 369.74 32.8C371.457 33.2853 372.95 33.8453 374.22 34.48C375.489 35.1147 376.516 35.8427 377.3 36.664C377.86 37.2987 378.289 38.008 378.588 38.792C378.886 39.5387 379.036 40.3787 379.036 41.312C379.036 43.2907 378.457 45.064 377.3 46.632C376.18 48.1627 374.63 49.376 372.652 50.272C370.673 51.1307 368.414 51.56 365.876 51.56Z" fill="white"/>
<path d="M396.505 51.56C393.108 51.56 390.177 50.9067 387.713 49.6C385.249 48.256 383.345 46.4267 382.001 44.112C380.657 41.76 379.985 39.0907 379.985 36.104C379.985 33.864 380.358 31.792 381.105 29.888C381.852 27.984 382.897 26.3413 384.241 24.96C385.585 23.5413 387.172 22.4587 389.001 21.712C390.868 20.928 392.902 20.536 395.105 20.536C397.27 20.536 399.23 20.9093 400.985 21.656C402.777 22.4027 404.308 23.4667 405.577 24.848C406.884 26.2293 407.873 27.8533 408.545 29.72C409.254 31.5867 409.572 33.64 409.497 35.88L409.441 38.232H385.921L384.633 33.024H401.097L400.089 34.144V33.08C400.089 32.2587 399.865 31.5493 399.417 30.952C399.006 30.3173 398.446 29.832 397.737 29.496C397.028 29.16 396.225 28.992 395.329 28.992C394.06 28.992 392.996 29.2533 392.137 29.776C391.316 30.2613 390.681 30.9707 390.233 31.904C389.785 32.8373 389.561 33.9573 389.561 35.264C389.561 36.7573 389.86 38.0453 390.457 39.128C391.092 40.2107 392.006 41.0507 393.201 41.648C394.433 42.2453 395.926 42.544 397.681 42.544C398.838 42.544 399.846 42.3947 400.705 42.096C401.601 41.7973 402.553 41.2747 403.561 40.528L408.377 47.304C407.07 48.3493 405.745 49.1893 404.401 49.824C403.094 50.4213 401.788 50.8507 400.481 51.112C399.174 51.4107 397.849 51.56 396.505 51.56Z" fill="white"/>
<path d="M416.885 51.616C415.205 51.616 413.899 51.1493 412.965 50.216C412.069 49.2827 411.621 47.9573 411.621 46.24C411.621 44.672 412.107 43.384 413.077 42.376C414.048 41.368 415.317 40.864 416.885 40.864C418.528 40.864 419.816 41.3307 420.749 42.264C421.683 43.1973 422.149 44.5227 422.149 46.24C422.149 47.808 421.664 49.096 420.693 50.104C419.723 51.112 418.453 51.616 416.885 51.616Z" fill="white"/>
</g>
<path id="Rectangle 9" d="M84 57H410V61H84V57Z" fill="white"/>
<g id="Equestrian &#38; Stud Farm Management">
<path d="M86.248 73.148H90.966V74.912H86.248V73.148ZM86.416 77.18H91.75V79H84.162V69.2H91.568V71.02H86.416V77.18Z" fill="white"/>
<path d="M98.8606 79.168C98.0952 79.168 97.3812 79.042 96.7186 78.79C96.0652 78.538 95.4959 78.1833 95.0106 77.726C94.5346 77.2687 94.1612 76.732 93.8906 76.116C93.6292 75.5 93.4986 74.828 93.4986 74.1C93.4986 73.372 93.6292 72.7 93.8906 72.084C94.1612 71.468 94.5392 70.9313 95.0246 70.474C95.5099 70.0167 96.0792 69.662 96.7326 69.41C97.3859 69.158 98.0952 69.032 98.8606 69.032C99.6352 69.032 100.345 69.158 100.989 69.41C101.642 69.662 102.207 70.0167 102.683 70.474C103.168 70.922 103.546 71.454 103.817 72.07C104.087 72.686 104.223 73.3627 104.223 74.1C104.223 74.828 104.087 75.5047 103.817 76.13C103.546 76.746 103.168 77.2827 102.683 77.74C102.207 78.188 101.642 78.538 100.989 78.79C100.345 79.042 99.6352 79.168 98.8606 79.168ZM102.067 81.254C101.684 81.254 101.32 81.212 100.975 81.128C100.639 81.044 100.303 80.9087 99.9666 80.722C99.6399 80.5353 99.2946 80.2833 98.9306 79.966C98.5759 79.6487 98.1886 79.2567 97.7686 78.79L100.149 78.188C100.401 78.5333 100.634 78.8087 100.849 79.014C101.063 79.2193 101.269 79.364 101.465 79.448C101.67 79.532 101.885 79.574 102.109 79.574C102.706 79.574 103.238 79.3313 103.705 78.846L104.713 80.05C104.05 80.8527 103.168 81.254 102.067 81.254ZM98.8606 77.236C99.2992 77.236 99.7006 77.1613 100.065 77.012C100.438 76.8627 100.765 76.648 101.045 76.368C101.325 76.088 101.539 75.7567 101.689 75.374C101.847 74.982 101.927 74.5573 101.927 74.1C101.927 73.6333 101.847 73.2087 101.689 72.826C101.539 72.4433 101.325 72.112 101.045 71.832C100.765 71.552 100.438 71.3373 100.065 71.188C99.7006 71.0387 99.2992 70.964 98.8606 70.964C98.4219 70.964 98.0159 71.0387 97.6426 71.188C97.2692 71.3373 96.9426 71.552 96.6626 71.832C96.3919 72.112 96.1772 72.4433 96.0186 72.826C95.8692 73.2087 95.7946 73.6333 95.7946 74.1C95.7946 74.5573 95.8692 74.982 96.0186 75.374C96.1772 75.7567 96.3919 76.088 96.6626 76.368C96.9426 76.648 97.2692 76.8627 97.6426 77.012C98.0159 77.1613 98.4219 77.236 98.8606 77.236Z" fill="white"/>
<path d="M110.841 79.168C109.45 79.168 108.363 78.7807 107.579 78.006C106.795 77.2313 106.403 76.1253 106.403 74.688V69.2H108.671V74.604C108.671 75.5373 108.862 76.2093 109.245 76.62C109.628 77.0307 110.164 77.236 110.855 77.236C111.546 77.236 112.082 77.0307 112.465 76.62C112.848 76.2093 113.039 75.5373 113.039 74.604V69.2H115.279V74.688C115.279 76.1253 114.887 77.2313 114.103 78.006C113.319 78.7807 112.232 79.168 110.841 79.168Z" fill="white"/>
<path d="M120.166 73.148H124.884V74.912H120.166V73.148ZM120.334 77.18H125.668V79H118.08V69.2H125.486V71.02H120.334V77.18Z" fill="white"/>
<path d="M131.253 79.168C130.469 79.168 129.718 79.0653 128.999 78.86C128.28 78.6453 127.702 78.37 127.263 78.034L128.033 76.326C128.453 76.6247 128.948 76.872 129.517 77.068C130.096 77.2547 130.679 77.348 131.267 77.348C131.715 77.348 132.074 77.306 132.345 77.222C132.625 77.1287 132.83 77.0027 132.961 76.844C133.092 76.6853 133.157 76.5033 133.157 76.298C133.157 76.0367 133.054 75.8313 132.849 75.682C132.644 75.5233 132.373 75.3973 132.037 75.304C131.701 75.2013 131.328 75.108 130.917 75.024C130.516 74.9307 130.11 74.8187 129.699 74.688C129.298 74.5573 128.929 74.3893 128.593 74.184C128.257 73.9787 127.982 73.708 127.767 73.372C127.562 73.036 127.459 72.6067 127.459 72.084C127.459 71.524 127.608 71.0153 127.907 70.558C128.215 70.0913 128.672 69.7227 129.279 69.452C129.895 69.172 130.665 69.032 131.589 69.032C132.205 69.032 132.812 69.1067 133.409 69.256C134.006 69.396 134.534 69.6107 134.991 69.9L134.291 71.622C133.834 71.3607 133.376 71.1693 132.919 71.048C132.462 70.9173 132.014 70.852 131.575 70.852C131.136 70.852 130.777 70.9033 130.497 71.006C130.217 71.1087 130.016 71.244 129.895 71.412C129.774 71.5707 129.713 71.7573 129.713 71.972C129.713 72.224 129.816 72.4293 130.021 72.588C130.226 72.7373 130.497 72.8587 130.833 72.952C131.169 73.0453 131.538 73.1387 131.939 73.232C132.35 73.3253 132.756 73.4327 133.157 73.554C133.568 73.6753 133.941 73.8387 134.277 74.044C134.613 74.2493 134.884 74.52 135.089 74.856C135.304 75.192 135.411 75.6167 135.411 76.13C135.411 76.6807 135.257 77.1847 134.949 77.642C134.641 78.0993 134.179 78.468 133.563 78.748C132.956 79.028 132.186 79.168 131.253 79.168Z" fill="white"/>
<path d="M139.414 79V71.048H136.278V69.2H144.818V71.048H141.682V79H139.414Z" fill="white"/>
<path d="M146.598 79V69.2H150.84C151.718 69.2 152.474 69.3447 153.108 69.634C153.743 69.914 154.233 70.32 154.578 70.852C154.924 71.384 155.096 72.0187 155.096 72.756C155.096 73.484 154.924 74.114 154.578 74.646C154.233 75.1687 153.743 75.57 153.108 75.85C152.474 76.13 151.718 76.27 150.84 76.27H147.858L148.866 75.276V79H146.598ZM152.828 79L150.378 75.444H152.8L155.278 79H152.828ZM148.866 75.528L147.858 74.464H150.714C151.414 74.464 151.937 74.3147 152.282 74.016C152.628 73.708 152.8 73.288 152.8 72.756C152.8 72.2147 152.628 71.7947 152.282 71.496C151.937 71.1973 151.414 71.048 150.714 71.048H147.858L148.866 69.97V75.528Z" fill="white"/>
<path d="M157.453 79V69.2H159.721V79H157.453Z" fill="white"/>
<path d="M161.319 79L165.687 69.2H167.927L172.309 79H169.929L166.345 70.348H167.241L163.643 79H161.319ZM163.503 76.9L164.105 75.178H169.145L169.761 76.9H163.503Z" fill="white"/>
<path d="M173.886 79V69.2H175.762L181.544 76.256H180.634V69.2H182.874V79H181.012L175.216 71.944H176.126V79H173.886Z" fill="white"/>
<path d="M197.882 79.168C197.163 79.168 196.524 79.0513 195.964 78.818C195.404 78.5847 194.961 78.2673 194.634 77.866C194.307 77.4647 194.144 77.0027 194.144 76.48C194.144 75.9947 194.251 75.5607 194.466 75.178C194.681 74.786 195.021 74.422 195.488 74.086C195.955 73.7407 196.547 73.4047 197.266 73.078C197.789 72.8353 198.199 72.6207 198.498 72.434C198.797 72.2473 199.007 72.07 199.128 71.902C199.249 71.7247 199.31 71.5473 199.31 71.37C199.31 71.1273 199.226 70.9313 199.058 70.782C198.899 70.6327 198.661 70.558 198.344 70.558C198.008 70.558 197.747 70.642 197.56 70.81C197.373 70.978 197.28 71.1927 197.28 71.454C197.28 71.594 197.308 71.734 197.364 71.874C197.42 72.0047 197.527 72.1587 197.686 72.336C197.845 72.504 198.069 72.7233 198.358 72.994L203.524 77.782L202.334 79.168L196.636 73.876C196.309 73.5773 196.048 73.2973 195.852 73.036C195.656 72.7747 195.511 72.518 195.418 72.266C195.334 72.014 195.292 71.7527 195.292 71.482C195.292 71.006 195.418 70.586 195.67 70.222C195.922 69.858 196.277 69.578 196.734 69.382C197.191 69.1767 197.728 69.074 198.344 69.074C198.913 69.074 199.403 69.1673 199.814 69.354C200.234 69.5313 200.561 69.788 200.794 70.124C201.037 70.46 201.158 70.8613 201.158 71.328C201.158 71.7387 201.055 72.1167 200.85 72.462C200.645 72.798 200.323 73.1153 199.884 73.414C199.455 73.7127 198.89 74.016 198.19 74.324C197.714 74.5387 197.336 74.7487 197.056 74.954C196.785 75.15 196.589 75.3507 196.468 75.556C196.347 75.7613 196.286 75.99 196.286 76.242C196.286 76.4753 196.356 76.6853 196.496 76.872C196.645 77.0587 196.851 77.2033 197.112 77.306C197.373 77.4087 197.681 77.46 198.036 77.46C198.605 77.46 199.128 77.3293 199.604 77.068C200.08 76.7973 200.481 76.4007 200.808 75.878C201.144 75.346 201.382 74.702 201.522 73.946L203.272 74.492C203.076 75.444 202.726 76.27 202.222 76.97C201.718 77.67 201.097 78.2113 200.36 78.594C199.623 78.9767 198.797 79.168 197.882 79.168Z" fill="white"/>
<path d="M217.817 79.168C217.033 79.168 216.282 79.0653 215.563 78.86C214.844 78.6453 214.266 78.37 213.827 78.034L214.597 76.326C215.017 76.6247 215.512 76.872 216.081 77.068C216.66 77.2547 217.243 77.348 217.831 77.348C218.279 77.348 218.638 77.306 218.909 77.222C219.189 77.1287 219.394 77.0027 219.525 76.844C219.656 76.6853 219.721 76.5033 219.721 76.298C219.721 76.0367 219.618 75.8313 219.413 75.682C219.208 75.5233 218.937 75.3973 218.601 75.304C218.265 75.2013 217.892 75.108 217.481 75.024C217.08 74.9307 216.674 74.8187 216.263 74.688C215.862 74.5573 215.493 74.3893 215.157 74.184C214.821 73.9787 214.546 73.708 214.331 73.372C214.126 73.036 214.023 72.6067 214.023 72.084C214.023 71.524 214.172 71.0153 214.471 70.558C214.779 70.0913 215.236 69.7227 215.843 69.452C216.459 69.172 217.229 69.032 218.153 69.032C218.769 69.032 219.376 69.1067 219.973 69.256C220.57 69.396 221.098 69.6107 221.555 69.9L220.855 71.622C220.398 71.3607 219.94 71.1693 219.483 71.048C219.026 70.9173 218.578 70.852 218.139 70.852C217.701 70.852 217.341 70.9033 217.061 71.006C216.781 71.1087 216.58 71.244 216.459 71.412C216.338 71.5707 216.277 71.7573 216.277 71.972C216.277 72.224 216.38 72.4293 216.585 72.588C216.79 72.7373 217.061 72.8587 217.397 72.952C217.733 73.0453 218.102 73.1387 218.503 73.232C218.914 73.3253 219.32 73.4327 219.721 73.554C220.132 73.6753 220.505 73.8387 220.841 74.044C221.177 74.2493 221.448 74.52 221.653 74.856C221.868 75.192 221.975 75.6167 221.975 76.13C221.975 76.6807 221.821 77.1847 221.513 77.642C221.205 78.0993 220.743 78.468 220.127 78.748C219.52 79.028 218.75 79.168 217.817 79.168Z" fill="white"/>
<path d="M225.978 79V71.048H222.842V69.2H231.382V71.048H228.246V79H225.978Z" fill="white"/>
<path d="M237.352 79.168C235.962 79.168 234.874 78.7807 234.09 78.006C233.306 77.2313 232.914 76.1253 232.914 74.688V69.2H235.182V74.604C235.182 75.5373 235.374 76.2093 235.756 76.62C236.139 77.0307 236.676 77.236 237.366 77.236C238.057 77.236 238.594 77.0307 238.976 76.62C239.359 76.2093 239.55 75.5373 239.55 74.604V69.2H241.79V74.688C241.79 76.1253 241.398 77.2313 240.614 78.006C239.83 78.7807 238.743 79.168 237.352 79.168Z" fill="white"/>
<path d="M244.592 79V69.2H249.044C250.108 69.2 251.046 69.4053 251.858 69.816C252.67 70.2173 253.304 70.782 253.762 71.51C254.219 72.238 254.448 73.1013 254.448 74.1C254.448 75.0893 254.219 75.9527 253.762 76.69C253.304 77.418 252.67 77.9873 251.858 78.398C251.046 78.7993 250.108 79 249.044 79H244.592ZM246.86 77.138H248.932C249.585 77.138 250.15 77.0167 250.626 76.774C251.111 76.522 251.484 76.1673 251.746 75.71C252.016 75.2527 252.152 74.716 252.152 74.1C252.152 73.4747 252.016 72.938 251.746 72.49C251.484 72.0327 251.111 71.6827 250.626 71.44C250.15 71.188 249.585 71.062 248.932 71.062H246.86V77.138Z" fill="white"/>
<path d="M263.343 73.61H268.047V75.43H263.343V73.61ZM263.511 79H261.243V69.2H268.649V71.02H263.511V79Z" fill="white"/>
<path d="M269.06 79L273.428 69.2H275.668L280.05 79H277.67L274.086 70.348H274.982L271.384 79H269.06ZM271.244 76.9L271.846 75.178H276.886L277.502 76.9H271.244Z" fill="white"/>
<path d="M281.627 79V69.2H285.869C286.746 69.2 287.502 69.3447 288.137 69.634C288.771 69.914 289.261 70.32 289.607 70.852C289.952 71.384 290.125 72.0187 290.125 72.756C290.125 73.484 289.952 74.114 289.607 74.646C289.261 75.1687 288.771 75.57 288.137 75.85C287.502 76.13 286.746 76.27 285.869 76.27H282.887L283.895 75.276V79H281.627ZM287.857 79L285.407 75.444H287.829L290.307 79H287.857ZM283.895 75.528L282.887 74.464H285.743C286.443 74.464 286.965 74.3147 287.311 74.016C287.656 73.708 287.829 73.288 287.829 72.756C287.829 72.2147 287.656 71.7947 287.311 71.496C286.965 71.1973 286.443 71.048 285.743 71.048H282.887L283.895 69.97V75.528Z" fill="white"/>
<path d="M292.481 79V69.2H294.357L298.529 76.116H297.535L301.637 69.2H303.499L303.527 79H301.399L301.385 72.462H301.777L298.501 77.964H297.479L294.133 72.462H294.609V79H292.481Z" fill="white"/>
<path d="M310.937 79V69.2H312.813L316.985 76.116H315.991L320.093 69.2H321.955L321.983 79H319.855L319.841 72.462H320.233L316.957 77.964H315.935L312.589 72.462H313.065V79H310.937Z" fill="white"/>
<path d="M323.58 79L327.948 69.2H330.188L334.57 79H332.19L328.606 70.348H329.502L325.904 79H323.58ZM325.764 76.9L326.366 75.178H331.406L332.022 76.9H325.764Z" fill="white"/>
<path d="M336.147 79V69.2H338.023L343.805 76.256H342.895V69.2H345.135V79H343.273L337.477 71.944H338.387V79H336.147Z" fill="white"/>
<path d="M346.726 79L351.094 69.2H353.334L357.716 79H355.336L351.752 70.348H352.648L349.05 79H346.726ZM348.91 76.9L349.512 75.178H354.552L355.168 76.9H348.91Z" fill="white"/>
<path d="M363.888 79.168C363.113 79.168 362.399 79.0467 361.746 78.804C361.102 78.552 360.537 78.1973 360.052 77.74C359.576 77.2827 359.203 76.746 358.932 76.13C358.671 75.514 358.54 74.8373 358.54 74.1C358.54 73.3627 358.671 72.686 358.932 72.07C359.203 71.454 359.581 70.9173 360.066 70.46C360.551 70.0027 361.121 69.6527 361.774 69.41C362.427 69.158 363.146 69.032 363.93 69.032C364.798 69.032 365.577 69.1767 366.268 69.466C366.968 69.7553 367.556 70.1753 368.032 70.726L366.576 72.07C366.221 71.6967 365.834 71.4213 365.414 71.244C364.994 71.0573 364.537 70.964 364.042 70.964C363.566 70.964 363.132 71.0387 362.74 71.188C362.348 71.3373 362.007 71.552 361.718 71.832C361.438 72.112 361.219 72.4433 361.06 72.826C360.911 73.2087 360.836 73.6333 360.836 74.1C360.836 74.5573 360.911 74.9773 361.06 75.36C361.219 75.7427 361.438 76.0787 361.718 76.368C362.007 76.648 362.343 76.8627 362.726 77.012C363.118 77.1613 363.547 77.236 364.014 77.236C364.462 77.236 364.896 77.166 365.316 77.026C365.745 76.8767 366.161 76.6293 366.562 76.284L367.85 77.922C367.318 78.3233 366.697 78.6313 365.988 78.846C365.288 79.0607 364.588 79.168 363.888 79.168ZM365.778 77.628V73.946H367.85V77.922L365.778 77.628Z" fill="white"/>
<path d="M372.603 73.148H377.321V74.912H372.603V73.148ZM372.771 77.18H378.105V79H370.517V69.2H377.923V71.02H372.771V77.18Z" fill="white"/>
<path d="M380.469 79V69.2H382.345L386.517 76.116H385.523L389.625 69.2H391.487L391.515 79H389.387L389.373 72.462H389.765L386.489 77.964H385.467L382.121 72.462H382.597V79H380.469Z" fill="white"/>
<path d="M396.486 73.148H401.204V74.912H396.486V73.148ZM396.654 77.18H401.988V79H394.4V69.2H401.806V71.02H396.654V77.18Z" fill="white"/>
<path d="M404.353 79V69.2H406.229L412.011 76.256H411.101V69.2H413.341V79H411.479L405.683 71.944H406.593V79H404.353Z" fill="white"/>
<path d="M418.25 79V71.048H415.114V69.2H423.654V71.048H420.518V79H418.25Z" fill="white"/>
</g>
</g>
</g>
<defs>
<clipPath id="clip0_49_1968">
<rect width="80" height="93" fill="white"/>
</clipPath>
</defs>
</svg>
