<svg width="20" height="20" viewBox="0 0 20 20" fill="none" xmlns="http://www.w3.org/2000/svg">
<path d="M3.84583 15.8333C3.4625 15.8333 3.1425 15.705 2.88583 15.4483C2.62861 15.1911 2.5 14.8708 2.5 14.4875V5.51246C2.5 5.12913 2.62861 4.80913 2.88583 4.55246C3.1425 4.29524 3.4625 4.16663 3.84583 4.16663H16.1542C16.5375 4.16663 16.8575 4.29524 17.1142 4.55246C17.3714 4.80913 17.5 5.12913 17.5 5.51246V14.4875C17.5 14.8708 17.3717 15.1908 17.115 15.4475C16.8578 15.7047 16.5375 15.8333 16.1542 15.8333H3.84583ZM10 10.0958L16.6667 5.73746L16.41 4.99996L10 9.16663L3.59 4.99996L3.33333 5.73746L10 10.0958Z" fill="#BD9E72"/>
</svg>
