<svg width="20" height="20" viewBox="0 0 20 20" fill="none" xmlns="http://www.w3.org/2000/svg">
<path d="M10.0001 9.58329C9.44755 9.58329 8.91764 9.3638 8.52694 8.9731C8.13624 8.5824 7.91675 8.05249 7.91675 7.49996C7.91675 6.94743 8.13624 6.41752 8.52694 6.02682C8.91764 5.63612 9.44755 5.41663 10.0001 5.41663C10.5526 5.41663 11.0825 5.63612 11.4732 6.02682C11.8639 6.41752 12.0834 6.94743 12.0834 7.49996C12.0834 7.77355 12.0295 8.04446 11.9248 8.29722C11.8201 8.54998 11.6667 8.77964 11.4732 8.9731C11.2798 9.16655 11.0501 9.32001 10.7973 9.42471C10.5446 9.52941 10.2737 9.58329 10.0001 9.58329ZM10.0001 1.66663C8.45299 1.66663 6.96925 2.28121 5.87529 3.37517C4.78133 4.46913 4.16675 5.95286 4.16675 7.49996C4.16675 11.875 10.0001 18.3333 10.0001 18.3333C10.0001 18.3333 15.8334 11.875 15.8334 7.49996C15.8334 5.95286 15.2188 4.46913 14.1249 3.37517C13.0309 2.28121 11.5472 1.66663 10.0001 1.66663Z" fill="#BD9E72"/>
</svg>
