<svg width="16" height="16" viewBox="0 0 16 16" fill="none" xmlns="http://www.w3.org/2000/svg">
<path d="M14.7215 7.5972C14.1722 6.44002 13.5186 5.49627 12.7605 4.76595L11.9655 5.56095C12.6138 6.18048 13.1785 6.99095 13.6668 8.00033C12.3668 10.691 10.5215 11.9691 7.9996 11.9691C7.24262 11.9691 6.54538 11.8525 5.90788 11.6194L5.04648 12.4808C5.93189 12.8897 6.91627 13.0941 7.9996 13.0941C11.0027 13.0941 13.2434 11.53 14.7215 8.40189C14.7809 8.27609 14.8117 8.13868 14.8117 7.99955C14.8117 7.86041 14.7809 7.72301 14.7215 7.5972ZM13.7282 2.5872L13.0621 1.92033C13.0505 1.90871 13.0367 1.89949 13.0215 1.8932C13.0064 1.8869 12.9901 1.88367 12.9737 1.88367C12.9572 1.88367 12.941 1.8869 12.9258 1.8932C12.9106 1.89949 12.8968 1.90871 12.8852 1.92033L11.1763 3.62845C10.2341 3.1472 9.17523 2.90658 7.9996 2.90658C4.99648 2.90658 2.75585 4.47064 1.27773 7.59877C1.21831 7.72457 1.1875 7.86198 1.1875 8.00111C1.1875 8.14024 1.21831 8.27765 1.27773 8.40345C1.86825 9.6472 2.57919 10.6441 3.41054 11.3942L1.7571 13.0472C1.73368 13.0706 1.72052 13.1024 1.72052 13.1356C1.72052 13.1687 1.73368 13.2005 1.7571 13.2239L2.42413 13.891C2.44757 13.9144 2.47935 13.9275 2.51249 13.9275C2.54563 13.9275 2.57741 13.9144 2.60085 13.891L13.7282 2.76408C13.7398 2.75247 13.749 2.73868 13.7553 2.72351C13.7616 2.70833 13.7649 2.69207 13.7649 2.67564C13.7649 2.65921 13.7616 2.64295 13.7553 2.62777C13.749 2.6126 13.7398 2.59881 13.7282 2.5872ZM2.33241 8.00033C3.63398 5.3097 5.47929 4.03158 7.9996 4.03158C8.85179 4.03158 9.62663 4.17783 10.3296 4.47517L9.23116 5.57361C8.71096 5.29605 8.11532 5.19304 7.53211 5.27977C6.9489 5.36651 6.40901 5.63839 5.99209 6.05532C5.57516 6.47224 5.30328 7.01213 5.21655 7.59534C5.12982 8.17854 5.23283 8.77418 5.51038 9.29439L4.20695 10.5978C3.48554 9.96111 2.86366 9.09845 2.33241 8.00033ZM6.1871 8.00033C6.18738 7.7248 6.25264 7.45323 6.37759 7.20767C6.50254 6.9621 6.68365 6.74948 6.90621 6.58706C7.12878 6.42464 7.38651 6.31702 7.65849 6.27293C7.93046 6.22883 8.209 6.24952 8.47148 6.3333L6.27007 8.5347C6.21489 8.36195 6.1869 8.18168 6.1871 8.00033Z" fill="black" fill-opacity="0.45"/>
<path d="M7.93724 9.75019C7.88318 9.75019 7.8299 9.74769 7.77709 9.74285L6.95178 10.5682C7.44817 10.7583 7.989 10.8005 8.50888 10.6898C9.02877 10.5791 9.50546 10.3201 9.88132 9.94427C10.2572 9.56841 10.5161 9.09172 10.6268 8.57184C10.7376 8.05195 10.6953 7.51112 10.5052 7.01473L9.67989 7.84004C9.68474 7.89285 9.68724 7.94613 9.68724 8.0002C9.68736 8.23004 9.64218 8.45766 9.55428 8.67004C9.46638 8.88241 9.33748 9.07538 9.17495 9.23791C9.01243 9.40043 8.81946 9.52933 8.60708 9.61723C8.39471 9.70513 8.16709 9.75031 7.93724 9.75019Z" fill="black" fill-opacity="0.45"/>
</svg>
