<svg width="210" height="30" viewBox="0 0 210 30" fill="none" xmlns="http://www.w3.org/2000/svg">
<path d="M207.577 8.6748C207.428 8.11828 207.135 7.61076 206.728 7.20303C206.32 6.79531 205.813 6.5017 205.257 6.35156C203.209 5.80078 195 5.80078 195 5.80078C195 5.80078 186.791 5.80078 184.743 6.34863C184.187 6.49828 183.679 6.79173 183.272 7.19953C182.865 7.60733 182.572 8.11511 182.423 8.67188C181.875 10.7227 181.875 15 181.875 15C181.875 15 181.875 19.2773 182.423 21.3252C182.725 22.4561 183.615 23.3467 184.743 23.6484C186.791 24.1992 195 24.1992 195 24.1992C195 24.1992 203.209 24.1992 205.257 23.6484C206.388 23.3467 207.275 22.4561 207.577 21.3252C208.125 19.2773 208.125 15 208.125 15C208.125 15 208.125 10.7227 207.577 8.6748ZM192.393 18.9258V11.0742L199.189 14.9707L192.393 18.9258Z" fill="#BD9E72"/>
<path d="M129.75 2.5H140.25C144.25 2.5 147.5 5.75 147.5 9.75V20.25C147.5 22.1728 146.736 24.0169 145.377 25.3765C144.017 26.7362 142.173 27.5 140.25 27.5H129.75C125.75 27.5 122.5 24.25 122.5 20.25V9.75C122.5 7.82718 123.264 5.98311 124.623 4.62348C125.983 3.26384 127.827 2.5 129.75 2.5ZM129.5 5C128.307 5 127.162 5.47411 126.318 6.31802C125.474 7.16193 125 8.30653 125 9.5V20.5C125 22.9875 127.012 25 129.5 25H140.5C141.693 25 142.838 24.5259 143.682 23.682C144.526 22.8381 145 21.6935 145 20.5V9.5C145 7.0125 142.987 5 140.5 5H129.5ZM141.562 6.875C141.977 6.875 142.374 7.03962 142.667 7.33265C142.96 7.62567 143.125 8.0231 143.125 8.4375C143.125 8.8519 142.96 9.24933 142.667 9.54235C142.374 9.83538 141.977 10 141.562 10C141.148 10 140.751 9.83538 140.458 9.54235C140.165 9.24933 140 8.8519 140 8.4375C140 8.0231 140.165 7.62567 140.458 7.33265C140.751 7.03962 141.148 6.875 141.562 6.875ZM135 8.75C136.658 8.75 138.247 9.40848 139.419 10.5806C140.592 11.7527 141.25 13.3424 141.25 15C141.25 16.6576 140.592 18.2473 139.419 19.4194C138.247 20.5915 136.658 21.25 135 21.25C133.342 21.25 131.753 20.5915 130.581 19.4194C129.408 18.2473 128.75 16.6576 128.75 15C128.75 13.3424 129.408 11.7527 130.581 10.5806C131.753 9.40848 133.342 8.75 135 8.75ZM135 11.25C134.005 11.25 133.052 11.6451 132.348 12.3483C131.645 13.0516 131.25 14.0054 131.25 15C131.25 15.9946 131.645 16.9484 132.348 17.6517C133.052 18.3549 134.005 18.75 135 18.75C135.995 18.75 136.948 18.3549 137.652 17.6517C138.355 16.9484 138.75 15.9946 138.75 15C138.75 14.0054 138.355 13.0516 137.652 12.3483C136.948 11.6451 135.995 11.25 135 11.25Z" fill="#BD9E72"/>
<path d="M88.0748 7.5C87.1123 7.9375 86.0748 8.225 84.9998 8.3625C86.0998 7.7 86.9498 6.65 87.3498 5.3875C86.3123 6.0125 85.1623 6.45 83.9498 6.7C82.9623 5.625 81.5748 5 79.9998 5C77.0623 5 74.6623 7.4 74.6623 10.3625C74.6623 10.7875 74.7123 11.2 74.7998 11.5875C70.3498 11.3625 66.3873 9.225 63.7498 5.9875C63.2873 6.775 63.0248 7.7 63.0248 8.675C63.0248 10.5375 63.9623 12.1875 65.4123 13.125C64.5248 13.125 63.6998 12.875 62.9748 12.5V12.5375C62.9748 15.1375 64.8248 17.3125 67.2748 17.8C66.4882 18.0153 65.6624 18.0452 64.8623 17.8875C65.2018 18.9531 65.8667 19.8855 66.7636 20.5537C67.6604 21.2218 68.7441 21.5921 69.8623 21.6125C67.9668 23.113 65.6173 23.9241 63.1998 23.9125C62.7748 23.9125 62.3498 23.8875 61.9248 23.8375C64.2998 25.3625 67.1248 26.25 70.1498 26.25C79.9998 26.25 85.4123 18.075 85.4123 10.9875C85.4123 10.75 85.4123 10.525 85.3998 10.2875C86.4498 9.5375 87.3498 8.5875 88.0748 7.5Z" fill="#BD9E72"/>
<path d="M17.5 16.875H20.625L21.875 11.875H17.5V9.375C17.5 8.0875 17.5 6.875 20 6.875H21.875V2.675C21.4675 2.62125 19.9287 2.5 18.3037 2.5C14.91 2.5 12.5 4.57125 12.5 8.375V11.875H8.75V16.875H12.5V27.5H17.5V16.875Z" fill="#BD9E72"/>
</svg>
